<svg xmlns="http://www.w3.org/2000/svg" xmlns:xlink="http://www.w3.org/1999/xlink" version="1.1" id="corporate" width="164" height="35" x="0px" y="0px" viewBox="0 0 164 35" enable-background="new 0 0 164 35" xml:space="preserve">
<g>
	<rect x="-16.1" y="-17.1" fill="none" width="196.2" height="69.6"></rect>
	<g>
		<g>
			<path fill="#CC0000" d="M127.7,19.1v-2.4l2.4-0.3c0.9-0.1,1.2-0.9,1.3-1.1l6.1-10c0.5-0.8,0-1.5-0.6-1.5l-3.2-0.4V1h13.9     c0.8,0,1.3,0.5,1.6,1l8.1,12.4c0.6,1,1.1,1.8,2,1.9l2.6,0.3v2.5h-15.7v-2.5l2-0.2c1-0.1,1.7-0.5,1-1.7l-0.8-1.1h-11.1l-0.9,1.4     c-0.5,0.8,0,1.4,0.8,1.5l2,0.2v2.5H127.7 M139.4,10.3h7l-3.6-5.6L139.4,10.3"></path>
			<path fill="#CC0000" d="M117.3,1H99.4v2.5l2.3,0.2c0.8,0.1,1.2,0.7,1.2,1.6c0,0.8,0,9,0,9.7c0,0.7-0.3,1.3-1,1.4l-2.4,0.3v2.4     l17.9,0c8.3,0,11.8-4,11.8-9.3C129.2,5,125.6,1,117.3,1 M114.6,15.6H110V4.4h4.6c4.4,0,6.3,1,6.3,5.6     C120.8,14.6,119,15.6,114.6,15.6"></path>
			<path fill="#CC0000" d="M2,19.1h14.5v-2.4l-2.5-0.3c-0.6-0.1-1.1-0.4-1.1-1.6v-2.9h11.2v2.8c0,0.8-0.1,1.6-1.1,1.7l-2.5,0.3v2.5     H35v-2.5l-2.6-0.3c-0.5-0.1-1.1-0.5-1.1-1.5V5.4c0-1,0.3-1.6,1.1-1.7L35,3.4V1H20.5v2.4L23,3.7c0.9,0.1,1.1,0.8,1.1,1.7v2.8H12.9     V5.4c0-1.1,0.4-1.6,1.2-1.6l2.5-0.3V1H2.1v2.5l2.4,0.3c1,0.1,1.2,0.8,1.2,1.7v9.2c0,1-0.3,1.6-1.2,1.7L2,16.7V19.1"></path>
			<path fill="#CC0000" d="M35.7,9.9c0-5.7,4.6-9.7,14.8-9.7c10.2,0,14.8,4,14.8,9.7c0,5.8-4.6,9.8-14.8,9.8     C40.3,19.7,35.7,15.8,35.7,9.9 M50.5,3.8C46.3,3.8,44,5.3,44,10c0,4.8,2.3,6.3,6.5,6.3c4.1,0,6.5-1.5,6.5-6.3     C56.9,5.3,54.6,3.8,50.5,3.8"></path>
			<path fill="#CC0000" d="M66.1,19.1h11.6v-2.4l-2.5-0.3c-0.7-0.1-1.1-0.7-1.1-1.5V5.7l9.6,12.7c0.3,0.4,0.9,0.7,1.5,0.7h9.1V5.4     c0-0.6,0.2-1.5,1.1-1.6l2.5-0.3V1H86.3v2.4l2.5,0.3c0.9,0.1,1.1,0.9,1.1,1.7v9L80.4,1.8C80,1.3,79.6,1,78.9,1H66.1v2.5l2.4,0.3     c0.9,0.1,1.2,0.6,1.2,1.7v9.2c0,1.1-0.3,1.6-1.2,1.7l-2.4,0.3V19.1"></path>
		</g>
		<g>
			<polygon fill="#231F20" points="7.9,26.8 11.6,26.8 11.6,34.3 12.9,34.3 12.9,26.8 16.5,26.8 16.5,25.8 7.9,25.8    "></polygon>
			<path fill="#231F20" d="M21.9,27.7c-1.2,0-2.1,0.5-2.7,1.3v-3.2h-1.3v8.5h1.3v-3c0-2,1.3-2.8,2.5-2.8c1.3,0,2,0.7,2,2.2v3.6h1.3     v-3.7C24.9,28.7,23.9,27.7,21.9,27.7z"></path>
			<path fill="#231F20" d="M53.2,28.3c-0.7-0.6-1.7-0.9-3-0.9c-1.2,0-2.3,0.3-3,1c-0.7,0.6-1,1.5-1,2.6c0,1.1,0.3,2,1,2.6     c0.7,0.6,1.7,0.9,3,0.9c2.6,0,4-1.3,4-3.5C54.2,29.8,53.9,28.9,53.2,28.3z M52.9,30.9c0,0.8-0.2,1.4-0.7,1.9     c-0.5,0.5-1.2,0.8-2,0.8c-0.8,0-1.5-0.3-2-0.8c-0.4-0.5-0.7-1.1-0.7-1.9c0-1.6,1-2.6,2.6-2.6C51.9,28.3,52.9,29.3,52.9,30.9z"></path>
			<path fill="#231F20" d="M91.5,28.3c-0.7-0.6-1.7-0.9-3-0.9c-1.2,0-2.3,0.3-3,1c-0.7,0.6-1,1.5-1,2.6c0,2.3,1.4,3.5,4,3.5     c1.3,0,2.3-0.3,3-0.9c0.7-0.6,1-1.5,1-2.6C92.5,29.8,92.1,28.9,91.5,28.3z M86.5,29.1c0.5-0.5,1.1-0.7,2-0.7c1.7,0,2.7,1,2.7,2.6     c0,0.7-0.2,1.4-0.7,1.9c-0.5,0.5-1.2,0.8-2,0.8c-1.6,0-2.7-1-2.7-2.6C85.8,30.2,86.1,29.5,86.5,29.1z"></path>
			<path fill="#231F20" d="M117.4,27.5c-1.3,0.1-2,0.9-2.4,1.7v-1.6h-1.2v6.8h1.3v-3.6c0-0.7,0.3-1.2,0.7-1.6c0.5-0.4,1-0.6,1.7-0.6     l0.6,0v-1.1l0,0C118,27.5,117.5,27.5,117.4,27.5z"></path>
			<path fill="#231F20" d="M41.8,25.8c0,0-3.9,0-3.9,0v8.5h1.3v-3.3H42c1.2,0,2-0.3,2.7-0.8c0.6-0.5,0.9-1.1,0.9-2     c0-0.7-0.2-1.2-0.6-1.6C44.2,26.1,43.2,25.8,41.8,25.8z M44,28.4c0,1.2-0.7,1.7-2.2,1.7h-2.6v-3.3h2.5C43.3,26.8,44,27.3,44,28.4     z"></path>
			<path fill="#231F20" d="M110.8,26.9c-0.8-0.7-2.1-1.1-3.8-1.1h-3.8v8.5h3.9c1.6,0,2.8-0.4,3.7-1.1c0.9-0.7,1.3-1.8,1.3-3.2     C112,28.7,111.6,27.6,110.8,26.9z M104.5,26.8h2.1c1.5,0,2.6,0.3,3.2,0.8c0.5,0.5,0.8,1.3,0.8,2.5c0,2.2-1.2,3.3-3.7,3.3h-2.3     V26.8z"></path>
			<path fill="#231F20" d="M134.3,32.9v-2.8c0-0.7,0-1.3-0.7-1.9c-0.6-0.5-1.6-0.8-2.6-0.8c-1,0-2.8,0.3-3.1,1.7h1.4     c0.2-0.5,0.9-0.8,1.7-0.8c1.2,0,2.1,0.5,2.1,1.6v0.2h-0.7c-0.1,0-0.3,0-0.4,0c-1.2,0-3,0-3.8,0.9c-0.3,0.3-0.5,0.8-0.5,1.3     c0,1.3,1.1,2.2,2.7,2.2c1.3,0,2.1-0.2,2.7-1.1c0,0,0,0.6,0.1,1c0.1,0,1.2,0,1.2,0S134.3,33.6,134.3,32.9z M133.1,31.3     c0,1.5-0.8,2.3-2.4,2.3c-1.1,0-1.7-0.5-1.7-1.3c0-0.3,0.1-0.5,0.3-0.7c0.5-0.5,1.7-0.6,2.5-0.6c0.1,0,0.3,0,0.4,0     c0.1,0,0.2,0,0.3,0h0.6V31.3z"></path>
			<path fill="#231F20" d="M144.5,27.4c-1.4,0-2.1,0.9-2.5,1.6c-0.4-1-1.3-1.6-2.3-1.6c-1.1,0-1.9,0.5-2.4,1.4c0,0,0-0.6-0.1-1.3     c-0.3,0-0.3,0-1.2,0c0,0.5,0,1.1,0,1.7v5.1h1.3v-3.3c0-1.9,1-2.7,2-2.7c1.1,0,1.6,0.8,1.6,2.5v3.5h1.3v-3.3c0-1,0.3-1.7,0.8-2.2     c0.5-0.5,1.1-0.5,1.2-0.5c0.6,0,1,0.2,1.3,0.6c0.2,0.4,0.3,1,0.3,1.9v3.4h1.3v-3.9c0-1-0.3-1.8-0.8-2.3     C146,27.7,145.4,27.4,144.5,27.4z"></path>
			<path fill="#231F20" d="M153.9,30.6l-2.1-0.4c-1-0.2-1.5-0.5-1.5-0.9c0-0.6,0.8-0.9,2-0.9c1,0,1.6,0.3,1.9,0.8h1.4     c-0.1-0.6-0.4-1-1-1.3c-0.7-0.3-1.6-0.4-2.2-0.4c-0.9,0-1.7,0.2-2.2,0.5c-0.6,0.4-1.1,0.9-1.1,1.6c0,0.9,0.7,1.4,1.9,1.7l2,0.4     c0.7,0.1,1.4,0.3,1.4,0.9c0,0.7-0.7,1-2.1,1c-1.1,0-1.8-0.3-2-1h-1.4c0.3,1.6,1.9,1.9,3.3,1.9c2.4,0,3.6-0.7,3.6-2.1     C155.6,31.4,155.1,30.9,153.9,30.6z"></path>
			<path fill="#231F20" d="M97.1,25.7c-0.7,0-1.3,0.1-1.8,0.5c-0.2,0.2-0.4,0.5-0.6,0.9c-0.1,0.4-0.2,0.7-0.2,1.4h-1.4v0.9h1.4l0,5     h1.3v-5h2.4v-0.9c0,0-2.1,0-2.4,0c0-0.9,0-1.3,0.3-1.5c0.2-0.2,0.5-0.3,1.1-0.3c0.4,0,0.8,0,1,0.1c0-0.1,0-0.8,0-0.9     C97.9,25.7,97.6,25.7,97.1,25.7z"></path>
			<path fill="#231F20" d="M64.6,30.6c-0.3,0.8-0.5,1.7-0.9,2.9h0c-0.3-0.9-0.6-1.9-0.9-2.8l-0.9-2.8l0,0h-2L59,30.6     c-0.3,0.9-0.6,1.9-0.9,2.8h0c-0.3-1.2-0.6-2.1-0.9-2.9l-0.8-2.7l0,0H55l2.1,6.5l0,0h2l0.9-2.8c0.1-0.2,0.2-0.5,0.2-0.7     c0.2-0.7,0.4-1.4,0.6-2.1h0c0.2,0.7,0.4,1.5,0.7,2.2c0.1,0.2,0.1,0.4,0.2,0.6l0.9,2.8l0,0h2l2.1-6.5l0,0h-1.4L64.6,30.6z"></path>
			<path fill="#231F20" d="M80,27.5c-1.3,0.1-2,0.9-2.4,1.7v-1.6h-1.2v6.8h1.3v-3.6c0-0.7,0.3-1.2,0.7-1.6c0.5-0.4,1-0.6,1.7-0.6     l0.6,0v-1.1l0,0C80.7,27.5,80.2,27.5,80,27.5z"></path>
			<path fill="#231F20" d="M73.9,28.3c-0.6-0.6-1.5-0.9-2.6-0.9c-2.3,0-3.7,1.4-3.7,3.7c0,1,0.3,1.9,1,2.5c0.6,0.6,1.6,1,2.7,1     c0.9,0,1.6-0.2,2.2-0.5c0.5-0.3,1-0.8,1.2-1.3h-1.4c-0.3,0.6-1.1,1-2,1c-0.9,0-1.7-0.4-2-1.2c-0.2-0.3-0.3-0.7-0.3-1.1h5.9v-0.4     C74.8,29.8,74.5,28.9,73.9,28.3z M68.9,30.4c0-0.1,0-0.3,0.1-0.4c0.3-1.1,1.1-1.7,2.3-1.7c1.6,0,2.1,1.1,2.2,2.1H68.9z"></path>
			<path fill="#231F20" d="M125.2,28.3c-0.6-0.6-1.5-0.9-2.6-0.9c-2.3,0-3.7,1.4-3.7,3.7c0,1,0.3,1.9,1,2.5c0.6,0.6,1.6,1,2.7,1     c0.9,0,1.6-0.2,2.2-0.5c0.5-0.3,1-0.8,1.2-1.3h-1.4c-0.3,0.6-1.1,1-2,1c-0.9,0-1.7-0.4-2-1.2c-0.2-0.3-0.3-0.7-0.3-1.1     c0,0,5.7,0,5.9,0c0-0.2,0-0.5,0-0.9C126,29.8,125.8,29,125.2,28.3z M120.2,30.4c0-0.1,0-0.3,0.1-0.4c0.3-1.1,1.1-1.7,2.3-1.7     c1.6,0,2.1,1.1,2.2,2.1H120.2z"></path>
			<path fill="#231F20" d="M32.8,28.3c-0.6-0.6-1.5-0.9-2.6-0.9c-2.3,0-3.7,1.4-3.7,3.7c0,1,0.3,1.9,1,2.5c0.6,0.6,1.6,1,2.7,1     c0.9,0,1.6-0.2,2.2-0.5c0.5-0.3,1-0.8,1.2-1.3h-1.4c-0.3,0.6-1.1,1-2,1c-0.9,0-1.7-0.4-2-1.2c-0.2-0.3-0.3-0.7-0.3-1.1h5.9v-0.4     C33.7,29.8,33.4,28.9,32.8,28.3z M27.8,30.4c0-0.1,0-0.3,0.1-0.4c0.3-1.1,1.1-1.7,2.3-1.7c1.6,0,2.1,1.1,2.2,2.1H27.8z"></path>
		</g>
	</g>
</g>
</svg>