<?xml version="1.0" encoding="UTF-8"?>
<!DOCTYPE svg PUBLIC "-//W3C//DTD SVG 1.1//EN" "http://www.w3.org/Graphics/SVG/1.1/DTD/svg11.dtd">
<!-- Creator: CorelDRAW X7 -->
<svg xmlns="http://www.w3.org/2000/svg" xml:space="preserve" width="762mm" height="635mm" version="1.1" style="shape-rendering:geometricPrecision; text-rendering:geometricPrecision; image-rendering:optimizeQuality; fill-rule:evenodd; clip-rule:evenodd"
viewBox="0 0 76200 63500"
 xmlns:xlink="http://www.w3.org/1999/xlink">
 <defs>
  <style type="text/css">
   <![CDATA[
    .fil0 {fill:#2B2A29}
    .fil1 {fill:#2B2A29;fill-rule:nonzero}
   ]]>
  </style>
 </defs>
 <g id="Layer_x0020_1">
  <metadata id="CorelCorpID_0Corel-Layer"/>
  <g id="_2664965721216">
   <path class="fil0" d="M48511 15689c166,0 326,39 478,117 153,77 273,189 361,334 87,146 131,298 131,456 0,158 -43,309 -129,452 -86,143 -205,255 -359,335 -153,80 -314,120 -482,120 -170,0 -330,-40 -484,-120 -153,-80 -273,-192 -358,-335 -86,-143 -129,-294 -129,-452 0,-158 44,-310 131,-456 88,-145 208,-257 360,-334 154,-78 313,-117 480,-117zm1 178c-134,0 -262,31 -384,93 -123,62 -219,152 -289,269 -71,117 -106,239 -106,367 0,127 34,249 103,364 69,115 165,205 288,270 123,65 252,97 388,97 136,0 265,-32 388,-97 123,-65 219,-155 288,-270 69,-115 104,-237 104,-364 0,-128 -35,-250 -106,-367 -70,-117 -167,-207 -290,-269 -123,-62 -251,-93 -384,-93zm-440 1215l0 -963 209 0c196,0 306,1 329,2 70,6 124,19 162,39 38,20 70,51 96,92 26,42 39,88 39,138 0,69 -24,129 -73,178 -49,50 -117,80 -205,92 31,11 56,23 73,36 16,13 40,38 69,74 8,10 33,49 76,117l122 195 -258 0 -87 -157c-58,-105 -106,-171 -144,-198 -38,-27 -86,-41 -145,-41l-54 0 0 396 -209 0zm209 -547l85 0c121,0 195,-5 225,-13 29,-9 52,-24 69,-46 17,-22 25,-47 25,-74 0,-27 -8,-51 -25,-72 -16,-21 -39,-36 -70,-45 -30,-9 -105,-13 -224,-13l-85 0 0 263z"/>
   <path class="fil1" d="M22046 16425l3843 0c661,0 1147,133 1454,402 308,268 460,590 460,967 0,408 -162,764 -487,1068 -325,305 -846,501 -1561,586 423,266 929,996 1519,2191l-2206 0c-184,-378 -401,-789 -651,-1236 -251,-447 -439,-707 -564,-777 -126,-72 -279,-107 -456,-107l-112 0 -575 2120 -2096 0 1432 -5214zm1511 2119l396 0c664,0 1093,-23 1288,-70 195,-47 339,-127 435,-240 95,-113 143,-221 143,-326 0,-133 -56,-238 -171,-313 -113,-76 -360,-114 -740,-114l-1060 0 -291 1063zm6402 -324l-175 652 -1229 0 172 -652 1232 0zm-253 945l-689 2474 -1235 0 686 -2474 1238 0zm1100 -945l1817 0c647,0 1118,132 1414,396 296,264 444,610 444,1036 0,409 -127,786 -380,1134 -254,346 -554,575 -900,687 -347,110 -677,166 -991,166l-2332 0 928 -3419zm654 2663l565 0c375,0 654,-149 837,-448 183,-298 275,-596 275,-893 0,-175 -53,-314 -159,-416 -105,-102 -295,-153 -569,-153l-435 0 -514 1910zm7787 -2663l-202 734 -2247 0 -149 544 2166 0 -199 693 -2163 0 -187 669 2438 0 -218 779 -3803 0 946 -3419 3618 0zm2872 -58c675,0 1171,139 1487,418 316,279 473,622 473,1030 0,156 -29,336 -86,537 -59,201 -171,410 -339,626 -168,215 -384,398 -651,547 -267,151 -523,251 -769,301 -245,51 -506,76 -782,76 -633,0 -1125,-123 -1480,-371 -355,-247 -532,-594 -532,-1040 0,-233 44,-461 132,-682 88,-221 219,-431 393,-627 174,-197 388,-362 643,-495 255,-133 505,-219 752,-260 247,-41 500,-60 759,-60zm-582 2756c264,0 488,-77 672,-230 184,-155 319,-348 403,-582 85,-234 127,-402 127,-501 0,-219 -72,-385 -216,-497 -144,-111 -328,-168 -551,-168 -250,0 -465,71 -645,211 -181,141 -316,329 -407,563 -90,233 -136,433 -136,598 0,174 67,318 200,434 132,114 317,172 553,172zm7944 -2698l-952 3419 -1281 0 -1096 -1987 -13 0 -549 1987 -1287 0 952 -3419 1280 0 1091 1992 12 0 556 -1992 1287 0z"/>
   <path class="fil1" d="M30444 17749l195 -760 393 0c99,0 169,7 211,21 41,13 71,38 89,73 18,35 21,74 9,119 -14,57 -47,105 -97,142 -50,37 -118,60 -201,70 35,19 63,41 83,64 21,23 46,64 75,123l75 148 -223 0 -93 -165c-33,-59 -56,-96 -70,-112 -14,-15 -30,-26 -48,-31 -19,-6 -49,-9 -92,-9l-38 0 -81 317 -187 0zm299 -438l138 0c90,0 147,-3 171,-9 24,-7 44,-17 61,-33 16,-15 27,-34 33,-57 7,-25 4,-46 -9,-62 -12,-15 -33,-25 -63,-30 -14,-1 -60,-2 -136,-2l-145 0 -50 193zm829 -322l341 0c77,0 135,5 173,15 51,13 91,36 121,70 30,33 49,74 57,123 8,49 3,108 -16,180 -16,62 -39,116 -70,162 -37,55 -81,100 -133,134 -39,26 -88,46 -147,60 -44,11 -101,16 -170,16l-351 0 195 -760zm154 129l-130 503 140 0c52,0 90,-2 115,-7 32,-6 60,-17 83,-31 24,-15 47,-40 68,-74 21,-34 40,-80 55,-139 15,-59 20,-104 16,-135 -5,-32 -16,-56 -35,-74 -18,-18 -44,-30 -77,-36 -25,-5 -75,-7 -152,-7l-83 0zm1732 631l-204 0 -36 -172 -371 0 -120 172 -199 0 556 -760 198 0 176 760zm-268 -300l-55 -282 -197 282 252 0zm560 -460l187 0 -105 412c-17,65 -25,108 -26,127 0,31 13,56 38,75 25,19 64,28 116,28 53,0 96,-9 127,-26 32,-18 53,-40 65,-66 13,-26 26,-69 42,-129l108 -421 187 0 -103 400c-23,91 -45,155 -65,193 -19,38 -46,69 -80,95 -34,26 -75,47 -125,62 -49,16 -111,23 -184,23 -88,0 -153,-8 -194,-25 -42,-17 -72,-38 -92,-65 -20,-27 -30,-55 -31,-84 -1,-44 10,-108 31,-193l104 -406zm949 760l162 -631 -274 0 32 -129 736 0 -33 129 -274 0 -162 631 -187 0zm617 -375c20,-77 51,-142 92,-195 31,-39 69,-73 113,-104 45,-31 90,-54 138,-69 62,-20 131,-30 207,-30 136,0 237,35 301,105 64,69 80,166 48,289 -31,123 -97,219 -196,289 -99,69 -216,103 -352,103 -138,0 -239,-34 -302,-103 -64,-69 -80,-164 -49,-285zm194 -5c-22,86 -15,151 22,196 37,44 93,66 168,66 74,0 141,-22 200,-66 59,-44 100,-110 123,-198 22,-87 15,-152 -20,-195 -36,-43 -92,-64 -169,-64 -77,0 -145,21 -203,65 -58,43 -99,108 -121,196zm759 380l193 -753 187 0 -160 625 464 0 -33 128 -651 0zm779 0l195 -760 187 0 -195 760 -187 0zm868 -279l33 -128 403 0 -78 303c-47,31 -111,58 -192,82 -80,24 -158,35 -234,35 -97,0 -177,-16 -241,-50 -63,-33 -105,-81 -125,-143 -21,-62 -22,-129 -3,-202 20,-79 59,-150 115,-211 56,-62 127,-109 214,-142 66,-25 143,-38 231,-38 115,0 200,20 254,60 55,39 82,94 83,164l-193 28c-4,-37 -21,-66 -51,-88 -31,-22 -73,-32 -126,-32 -82,0 -153,21 -212,63 -59,43 -99,106 -121,190 -23,90 -16,158 22,203 37,45 95,67 174,67 39,0 80,-6 123,-19 42,-12 80,-28 113,-46l25 -96 -214 0zm504 279l195 -760 187 0 -77 299 367 0 76 -299 187 0 -195 760 -187 0 86 -332 -367 0 -85 332 -187 0zm1142 0l162 -631 -275 0 33 -129 736 0 -33 129 -274 0 -162 631 -187 0zm598 -247l185 -14c-2,50 11,87 39,110 27,24 69,35 126,35 60,0 108,-10 144,-31 36,-21 58,-45 65,-73 4,-18 2,-34 -8,-46 -9,-13 -29,-24 -59,-33 -20,-7 -67,-17 -141,-33 -95,-21 -159,-46 -191,-76 -47,-41 -62,-92 -46,-153 9,-38 32,-74 68,-108 35,-34 80,-60 135,-77 55,-18 118,-27 189,-27 116,0 198,21 246,63 48,42 65,98 50,168l-189 6c2,-39 -8,-67 -30,-84 -22,-17 -59,-26 -112,-26 -54,0 -99,10 -134,28 -23,12 -37,27 -42,47 -5,18 1,33 16,46 19,16 72,33 159,51 86,18 149,36 187,55 39,19 67,44 83,77 16,33 18,73 6,121 -11,44 -37,84 -76,122 -39,38 -88,67 -147,85 -58,19 -128,28 -208,28 -117,0 -202,-22 -253,-67 -51,-44 -72,-109 -62,-194z"/>
   <path class="fil1" d="M20364 23814l291 -1133 417 0 52 773 445 -773 418 0 -290 1133 -259 0 229 -892 -503 892 -268 0 -45 -892 -228 892 -259 0zm1697 -559c29,-116 75,-213 137,-291 46,-58 102,-109 168,-155 66,-46 135,-80 205,-102 94,-30 196,-45 309,-45 203,0 352,52 448,155 95,104 120,248 72,432 -47,183 -144,326 -292,430 -147,103 -322,154 -525,154 -205,0 -355,-51 -450,-154 -95,-103 -119,-244 -72,-424zm288 -8c-33,128 -21,225 34,292 55,66 138,99 249,99 111,0 211,-33 299,-99 88,-65 149,-164 182,-295 34,-130 24,-227 -29,-291 -53,-64 -137,-96 -251,-96 -115,0 -216,33 -303,97 -87,65 -147,162 -181,293zm1434 567l242 -941 -410 0 49 -192 1097 0 -49 192 -409 0 -241 941 -279 0zm920 -559c29,-116 75,-213 137,-291 46,-58 102,-109 168,-155 66,-46 135,-80 205,-102 94,-30 196,-45 309,-45 203,0 352,52 448,155 95,104 120,248 72,432 -47,183 -144,326 -292,430 -147,103 -322,154 -525,154 -205,0 -355,-51 -450,-154 -95,-103 -119,-244 -72,-424zm288 -8c-33,128 -21,225 34,292 55,66 138,99 249,99 111,0 211,-33 299,-99 88,-65 149,-164 183,-295 33,-130 23,-227 -30,-291 -53,-64 -137,-96 -251,-96 -115,0 -216,33 -303,97 -87,65 -147,162 -181,293zm1125 567l290 -1133 587 0c147,0 252,11 313,31 62,20 106,56 133,108 27,53 31,112 14,179 -22,85 -70,155 -145,211 -75,55 -175,90 -300,104 53,29 95,61 125,95 30,35 67,96 111,184l112 221 -333 0 -138 -247c-49,-88 -84,-143 -104,-166 -21,-23 -45,-38 -72,-47 -27,-9 -73,-13 -137,-13l-56 0 -122 473 -278 0zm446 -654l206 0c134,0 218,-4 254,-13 36,-10 66,-26 90,-49 25,-22 42,-50 51,-84 9,-39 5,-69 -14,-93 -19,-23 -50,-38 -94,-44 -21,-3 -89,-4 -202,-4l-217 0 -74 287zm2470 238l252 70c-73,123 -166,215 -277,275 -112,60 -242,90 -390,90 -183,0 -321,-51 -412,-154 -92,-103 -115,-243 -69,-421 48,-189 145,-335 291,-440 145,-104 314,-156 508,-156 168,0 295,41 379,123 51,48 80,118 88,209l-290 54c-1,-59 -23,-106 -66,-140 -43,-34 -102,-51 -176,-51 -102,0 -193,31 -272,91 -79,60 -136,158 -170,293 -37,143 -32,245 15,306 47,61 121,91 221,91 74,0 143,-19 206,-58 63,-39 117,-100 162,-182zm764 416l123 -477 -337 -656 326 0 210 448 433 -448 321 0 -676 658 -122 475 -278 0zm1914 -416l252 70c-74,123 -166,215 -278,275 -111,60 -241,90 -389,90 -183,0 -321,-51 -413,-154 -91,-103 -114,-243 -68,-421 48,-189 145,-335 290,-440 146,-104 315,-156 508,-156 169,0 296,41 380,123 50,48 80,118 88,209l-290 54c-1,-59 -23,-106 -67,-140 -43,-34 -101,-51 -175,-51 -102,0 -193,31 -272,91 -79,60 -136,158 -171,293 -36,143 -32,245 16,306 47,61 121,91 221,91 74,0 143,-19 206,-58 63,-39 117,-100 162,-182zm409 416l289 -1124 278 0 -239 933 693 0 -49 191 -972 0zm1170 0l291 -1133 1023 0 -49 192 -745 0 -64 251 693 0 -49 191 -693 0 -79 308 771 0 -49 191 -1050 0zm1846 -368l276 -22c-3,75 16,129 57,165 41,34 104,52 189,52 89,0 161,-16 214,-47 54,-31 86,-67 97,-109 7,-27 3,-50 -12,-68 -14,-19 -43,-36 -87,-50 -30,-9 -101,-25 -210,-49 -142,-30 -237,-68 -286,-112 -69,-62 -92,-138 -69,-228 15,-58 49,-112 102,-162 52,-50 120,-88 201,-115 82,-26 176,-39 282,-39 173,0 295,31 367,93 72,63 96,146 74,250l-281 10c3,-58 -12,-100 -45,-125 -32,-26 -88,-39 -166,-39 -81,0 -148,14 -201,41 -34,18 -55,41 -62,70 -7,27 1,50 23,69 29,25 108,50 237,76 129,26 222,54 280,81 58,29 98,67 123,116 24,49 27,109 8,180 -16,65 -54,126 -112,182 -59,57 -131,99 -219,127 -87,27 -191,41 -311,41 -174,0 -300,-33 -376,-99 -77,-66 -108,-163 -93,-289zm1261 368l291 -1133 447 0c169,0 278,6 327,17 74,17 131,54 170,111 39,57 47,131 24,221 -18,69 -49,128 -92,175 -43,48 -91,85 -146,112 -54,27 -107,45 -158,53 -69,11 -167,17 -293,17l-181 0 -110 427 -279 0zm520 -941l-82 321 152 0c110,0 185,-6 225,-17 40,-12 74,-31 101,-56 28,-25 46,-55 55,-88 10,-41 4,-75 -19,-102 -22,-27 -55,-44 -99,-50 -32,-6 -98,-8 -198,-8l-135 0zm1867 941l-303 0 -54 -257 -552 0 -180 257 -295 0 828 -1133 294 0 262 1133zm-398 -448l-82 -420 -294 420 376 0zm547 448l290 -1133 587 0c147,0 252,11 313,31 62,20 106,56 133,108 27,53 32,112 14,179 -21,85 -70,155 -145,211 -75,55 -175,90 -300,104 53,29 95,61 125,95 31,35 68,96 111,184l112 221 -333 0 -138 -247c-49,-88 -84,-143 -104,-166 -20,-23 -44,-38 -72,-47 -27,-9 -73,-13 -137,-13l-56 0 -121 473 -279 0zm446 -654l206 0c134,0 219,-4 254,-13 36,-10 66,-26 91,-49 24,-22 41,-50 50,-84 10,-39 5,-69 -14,-93 -19,-23 -50,-38 -93,-44 -22,-3 -90,-4 -203,-4l-217 0 -74 287zm945 654l291 -1133 1023 0 -50 192 -744 0 -64 251 692 0 -49 191 -692 0 -79 308 770 0 -49 191 -1049 0zm1821 0l291 -1133 447 0c169,0 278,6 327,17 74,17 131,54 170,111 39,57 47,131 23,221 -17,69 -48,128 -91,175 -43,48 -91,85 -146,112 -54,27 -107,45 -158,53 -69,11 -167,17 -293,17l-182 0 -109 427 -279 0zm520 -941l-82 321 152 0c110,0 185,-6 225,-17 40,-12 74,-31 101,-56 28,-25 46,-55 54,-88 11,-41 5,-75 -18,-102 -22,-27 -55,-44 -99,-50 -32,-6 -98,-8 -198,-8l-135 0zm1867 941l-303 0 -54 -257 -552 0 -180 257 -295 0 828 -1133 294 0 262 1133zm-398 -448l-82 -420 -294 420 376 0zm547 448l290 -1133 587 0c147,0 252,11 313,31 62,20 106,56 133,108 27,53 32,112 14,179 -21,85 -70,155 -145,211 -75,55 -175,90 -300,104 53,29 95,61 125,95 30,35 68,96 111,184l112 221 -333 0 -138 -247c-49,-88 -84,-143 -104,-166 -21,-23 -44,-38 -72,-47 -27,-9 -73,-13 -137,-13l-56 0 -122 473 -278 0zm446 -654l206 0c134,0 219,-4 254,-13 36,-10 66,-26 91,-49 24,-22 41,-50 50,-84 10,-39 5,-69 -14,-93 -19,-23 -50,-38 -93,-44 -22,-3 -90,-4 -203,-4l-217 0 -74 287zm1255 654l242 -941 -409 0 49 -192 1096 0 -49 192 -408 0 -242 941 -279 0zm891 -368l277 -22c-3,75 16,129 57,165 41,34 104,52 188,52 90,0 162,-16 215,-47 54,-31 86,-67 97,-109 6,-27 3,-50 -12,-68 -14,-19 -43,-36 -88,-50 -30,-9 -100,-25 -210,-49 -141,-30 -236,-68 -285,-112 -69,-62 -92,-138 -69,-228 15,-58 49,-112 101,-162 53,-50 120,-88 202,-115 82,-26 176,-39 282,-39 173,0 295,31 367,93 71,63 96,146 74,250l-281 10c3,-58 -12,-100 -45,-125 -33,-26 -88,-39 -167,-39 -81,0 -148,14 -200,41 -34,18 -55,41 -63,70 -6,27 1,50 24,69 29,25 108,50 237,76 129,26 222,54 280,81 57,29 98,67 123,116 24,49 27,109 8,180 -16,65 -54,126 -112,182 -59,57 -132,99 -219,127 -88,27 -191,41 -311,41 -175,0 -300,-33 -377,-99 -76,-66 -107,-163 -93,-289z"/>
  </g>
 </g>
</svg>
